<?xml version="1.0" encoding="utf-8"?>
<!-- Generator: Adobe Illustrator 22.0.1, SVG Export Plug-In . SVG Version: 6.00 Build 0)  -->
<svg version="1.1" id="Layer_1" xmlns="http://www.w3.org/2000/svg" xmlns:xlink="http://www.w3.org/1999/xlink" x="0px" y="0px"
	viewBox="0 0 493.8 493.8" style="enable-background:new 0 0 493.8 493.8;" xml:space="preserve"
	>
<g>
	<g>
		<path d="M137.9,292.8l274.5,188.8c11.3,7.8,23,11.9,33.1,11.9c22.1,0,36.7-18.5,36.7-48.3v-397c0-14.5-4.2-26.7-10.5-35.1
			C465.3,4.5,455.3,0,444.5,0c-10,0-21.3,4.1-32.6,11.9L137.7,200.7c-17.6,12.2-27.3,28.5-27.3,46.1
			C110.4,264.3,120.2,280.7,137.9,292.8z"/>
	</g>
</g>
<g>
	<g>
		<g>
			<path d="M37.4,0.1l0.3,0c0,0,0.1,0,0.1,0H37.4z"/>
			<path d="M38.2,493.8l11.3,0c14.9,0,27.7-12.1,27.7-27V27.4c0-14.9-12.7-27.1-27.5-27.1L37.6,0.1c-14.8,0.1-26,12.4-26,27.3v439.4
				C11.7,481.7,23.3,493.8,38.2,493.8z"/>
		</g>
	</g>
</g>
</svg>
